<?xml version="1.0" encoding="UTF-8"?>
<svg version="1.1" xmlns="http://www.w3.org/2000/svg" width="708" height="708">
<path d="M0 0 C233.64 0 467.28 0 708 0 C708 233.64 708 467.28 708 708 C474.36 708 240.72 708 0 708 C0 474.36 0 240.72 0 0 Z " fill="#F7FCFB" transform="translate(0,0)"/>
<path d="M0 0 C-1.39479728 6.73471876 -3.21916298 13.21084136 -5.31640625 19.7578125 C-5.64497116 20.79495895 -5.97353607 21.83210541 -6.3120575 22.90068054 C-7.02184242 25.14039547 -7.73326626 27.37959154 -8.44616699 29.61831665 C-10.36476779 35.64512533 -12.26980926 41.67621915 -14.17578125 47.70703125 C-14.57098969 48.95669174 -14.96619812 50.20635223 -15.37338257 51.49388123 C-19.72080972 65.24963203 -23.99110742 79.02909764 -28.25 92.8125 C-28.78296188 94.5345163 -28.78296188 94.5345163 -29.32669067 96.2913208 C-32.58270205 106.8131287 -35.82665827 117.33503786 -38.90245056 127.91107178 C-42.6602342 140.75003265 -46.6723523 153.51557146 -50.61456299 166.29882812 C-51.78875622 170.1071778 -52.96170249 173.91591149 -54.13476562 177.72460938 C-56.42198301 185.15010789 -58.71054399 192.57519136 -61 200 C-61.78842285 199.21085205 -62.5768457 198.4217041 -63.38916016 197.60864258 C-64.84498615 196.1540418 -66.30372931 194.70229175 -67.7734375 193.26171875 C-71.39883856 189.69821478 -74.80384533 186.00765463 -78.125 182.16015625 C-80.18188679 179.79045127 -82.27406259 177.45572744 -84.375 175.125 C-85.1278125 174.2896875 -85.880625 173.454375 -86.65625 172.59375 C-88.25820706 170.82091753 -89.86248227 169.05017775 -91.46875 167.28125 C-92.65984375 165.96640625 -92.65984375 165.96640625 -93.875 164.625 C-94.59429687 163.83351562 -95.31359375 163.04203125 -96.0546875 162.2265625 C-97.81270367 160.21437531 -99.43091757 158.161189 -101 156 C-115.2740926 162.39532093 -127.84332987 177.75474977 -138.79208374 188.61685181 C-140.20743571 190.02029388 -141.6267301 191.41975658 -143.04614258 192.8190918 C-149.13568694 198.90098254 -154.66285503 205.25262346 -160 212 C-161.17307003 213.4480034 -162.34623953 214.89592622 -163.51953125 216.34375 C-185.2865219 243.63840211 -202.40111193 274.71322966 -210 309 C-210.14808105 309.63131836 -210.29616211 310.26263672 -210.44873047 310.91308594 C-215.53355366 333.16808174 -213.72604888 356.68075273 -210 379 C-209.82984375 378.11554199 -209.6596875 377.23108398 -209.484375 376.31982422 C-203.2473302 344.3425287 -194.26365809 314.25291664 -174 288 C-173.3191333 287.1035376 -173.3191333 287.1035376 -172.62451172 286.18896484 C-140.52026276 244.16061637 -94.99424799 217.69369543 -43 209 C-42.00508545 208.82049805 -41.0101709 208.64099609 -39.98510742 208.45605469 C-29.62461553 206.74888942 -19.41360096 206.68555258 -8.9375 206.75 C-7.57363663 206.75515121 -7.57363663 206.75515121 -6.18222046 206.76040649 C14.94737526 206.85410913 34.51105497 208.61604364 55 214 C55.84949219 214.22171875 56.69898438 214.4434375 57.57421875 214.671875 C91.05397619 223.59981032 126.33606237 240.91830535 150.44140625 266.40625 C152.14332522 268.14655812 153.94857048 269.68503739 155.8125 271.25 C195.86535355 306.07522583 218.85965308 364.13739056 223 416 C223.14229048 419.1190893 223.18586244 422.23340012 223.203125 425.35546875 C223.21357849 426.63982819 223.21357849 426.63982819 223.22424316 427.95013428 C223.24152393 430.69597357 223.2479623 433.4416086 223.25 436.1875 C223.25100708 437.12618927 223.25201416 438.06487854 223.25305176 439.03201294 C223.24273452 453.24537415 222.61748448 467.00037989 220 481 C219.7526469 482.52453579 219.50653585 484.04927366 219.26171875 485.57421875 C208.16048446 549.60921952 166.54180498 604.87008709 114.75 642.0625 C106.19589414 648.0888835 97.28609998 653.19601079 88 658 C87.17387207 658.43666992 86.34774414 658.87333984 85.49658203 659.32324219 C63.19356773 671.02000899 37.993561 680.3009934 13 684 C12.08959961 684.14373047 11.17919922 684.28746094 10.24121094 684.43554688 C-16.68965034 688.56512284 -44.12883487 688.44023429 -71 684 C-72.38143352 683.79245628 -73.76293777 683.58538243 -75.14453125 683.37890625 C-107.60668137 677.99640762 -137.93060082 664.9487589 -167 650 C-167.9084668 649.53609863 -168.81693359 649.07219727 -169.75292969 648.59423828 C-180.99131088 642.85021758 -192.12596196 636.9889037 -203.0625 630.6875 C-245.47236705 606.4038001 -295.22240709 581.5862763 -345.453125 593.03125 C-373.63197448 600.72767585 -396.9861838 616.01352592 -418 636 C-418.63292969 636.58007812 -419.26585937 637.16015625 -419.91796875 637.7578125 C-428.68673594 646.0475259 -435.79887502 656.22726616 -442.09521484 666.46899414 C-443.83735951 669.29037637 -445.50578538 671.79417895 -448 674 C-442.20883435 628.70698869 -418.59018663 585.66628148 -382.671875 557.3515625 C-363.23978778 542.40278997 -341.95128653 532.90419311 -318 528 C-316.54787109 527.67902344 -316.54787109 527.67902344 -315.06640625 527.3515625 C-283.68179546 520.59481322 -250.14773647 526.53630577 -220 536 C-218.85740723 536.35835937 -217.71481445 536.71671875 -216.53759766 537.0859375 C-197.46261211 543.17397801 -179.2313354 550.79862144 -161 559 C-103.1773396 584.96764549 -44.64712276 605.7461597 18 583 C45.62335732 572.38023192 71.02420113 554.66394501 89 531 C89.86936709 529.90461082 90.73917957 528.80957501 91.609375 527.71484375 C118.01409211 493.85456649 126.43999795 452.72115921 122.70263672 410.65283203 C121.95657272 404.62708502 120.69051548 398.82760614 119 393 C118.64591064 391.76588379 118.64591064 391.76588379 118.28466797 390.50683594 C106.71673134 351.61887875 80.49256048 320.46097178 45.32421875 300.73046875 C40.99770729 298.47824245 36.601049 296.6114273 32 295 C32 295.66 32 296.32 32 297 C32.72574219 297.268125 33.45148438 297.53625 34.19921875 297.8125 C36.96864024 298.98670381 39.30919434 300.3394324 41.8125 302 C42.60269531 302.515625 43.39289063 303.03125 44.20703125 303.5625 C45.09455078 304.2740625 45.09455078 304.2740625 46 305 C46 305.66 46 306.32 46 307 C46.66 307 47.32 307 48 307 C48 307.66 48 308.32 48 309 C48.59039062 309.10054688 49.18078125 309.20109375 49.7890625 309.3046875 C55.75419024 311.1806464 61.40907447 319.0147957 65 324 C65 324.66 65 325.32 65 326 C65.66 326 66.32 326 67 326 C67.33 326.66 67.66 327.32 68 328 C68.59167969 328.25265625 69.18335938 328.5053125 69.79296875 328.765625 C77.58760091 333.12510069 82.74115301 345.97584838 86.44921875 353.75 C87.74023799 356.4556121 89.12523344 359.05935544 90.5625 361.6875 C92.88252266 366.35051584 94.5241701 371.17990622 96.125 376.125 C96.36677979 376.85807373 96.60855957 377.59114746 96.85766602 378.34643555 C101.18734046 392.23728897 102.55495122 405.77613868 102.4375 420.25 C102.43243942 421.46623047 102.43243942 421.46623047 102.42727661 422.70703125 C102.35214141 435.19576196 101.61617705 446.97512211 98 459 C97.75330566 459.85400391 97.50661133 460.70800781 97.25244141 461.58789062 C93.69313801 473.71006083 89.07911846 484.9383031 83 496 C82.17048828 497.56427734 82.17048828 497.56427734 81.32421875 499.16015625 C70.49023163 518.78544557 53.97043796 536.11516621 35 548 C34.42540039 548.36029297 33.85080078 548.72058594 33.25878906 549.09179688 C21.60798136 556.2785193 9.49674509 561.44027296 -3.625 565.25 C-4.4713501 565.49637207 -5.3177002 565.74274414 -6.18969727 565.99658203 C-17.81746753 569.23503522 -29.12621473 570.44310561 -41.1875 570.4375 C-42.22905746 570.43860275 -42.22905746 570.43860275 -43.29165649 570.43972778 C-63.56890559 570.38384845 -85.55224371 566.86511091 -104 558 C-104.33 557.34 -104.66 556.68 -105 556 C-102.0703125 556.48828125 -99.140625 556.9765625 -96.2109375 557.46484375 C-95.15132813 557.64144531 -94.09171875 557.81804688 -93 558 C-92.07002197 558.17039795 -91.14004395 558.3407959 -90.18188477 558.51635742 C-55.1655952 563.83879045 -18.301623 552.46457084 10.03100586 531.8762207 C16.07294719 527.33052931 21.56077594 522.23983901 27 517 C27.69351562 516.36964844 28.38703125 515.73929688 29.1015625 515.08984375 C47.83391101 497.55235698 59.43124876 473.2806911 66.25 448.9375 C66.4965332 448.06383789 66.74306641 447.19017578 66.99707031 446.29003906 C70.24618581 434.15191879 71.39146759 422.04006846 71.375 409.5 C71.37338867 408.2020752 71.37177734 406.90415039 71.37011719 405.56689453 C71.18312041 390.67865127 68.98865767 376.42519134 63.81640625 362.4296875 C62.64883189 358.95489681 62.28040032 355.6452041 62 352 C61.34 352 60.68 352 60 352 C59.68546875 351.21496094 59.3709375 350.42992187 59.046875 349.62109375 C56.23865851 342.64638912 56.23865851 342.64638912 52.75 336 C51.31241312 333.53556534 50.44459312 331.778707 50 329 C49.34 329 48.68 329 48 329 C44 323.58823529 44 323.58823529 44 321 C43.34 321 42.68 321 42 321 C42 320.34 42 319.68 42 319 C41.34 319 40.68 319 40 319 C39.67 318.01 39.34 317.02 39 316 C38.34 315.67 37.68 315.34 37 315 C37 314.01 37 313.02 37 312 C35.68 311.34 34.36 310.68 33 310 C33 309.34 33 308.68 33 308 C32.01 308 31.02 308 30 308 C27.8125 306.125 27.8125 306.125 26 304 C26 303.34 26 302.68 26 302 C25.236875 301.731875 24.47375 301.46375 23.6875 301.1875 C21.02053536 300.00907376 20.00851945 299.00851945 18 297 C16.02379014 295.95377125 14.0262871 294.94560065 12 294 C12 293.34 12 292.68 12 292 C11.28457031 291.88785156 10.56914062 291.77570313 9.83203125 291.66015625 C6.80884002 290.95543995 4.43677312 289.86712202 1.6875 288.4375 C0.80449219 287.98246094 -0.07851563 287.52742188 -0.98828125 287.05859375 C-1.65214844 286.70925781 -2.31601562 286.35992187 -3 286 C-3 285.01 -3 284.02 -3 283 C-3.91942383 282.84180786 -3.91942383 282.84180786 -4.85742188 282.68041992 C-6.69227952 282.36426036 -8.52698291 282.04720485 -10.36157227 281.72949219 C-12.4787332 281.36386813 -14.59642503 281.00130676 -16.71459961 280.64160156 C-25.89481224 279.06804976 -25.89481224 279.06804976 -30.03515625 278.06640625 C-50.0681611 273.42975286 -72.25971288 274.45430992 -92 280 C-92.66451172 280.18191895 -93.32902344 280.36383789 -94.01367188 280.55126953 C-131.31621882 291.06021969 -161.89765153 317.58889877 -180.734375 350.99316406 C-200.55761504 387.11637297 -205.15523528 428.45352011 -193.9375 468.125 C-188.70269483 483.42673818 -181.70009045 498.76309225 -171 511 C-169.90751953 512.27810547 -169.90751953 512.27810547 -168.79296875 513.58203125 C-166.57877982 516.10643929 -164.30431361 518.55782148 -162 521 C-160.91525391 522.19882813 -160.91525391 522.19882813 -159.80859375 523.421875 C-150.72174707 533.07761055 -139.56731577 540.6023496 -128 547 C-128.66 547.33 -129.32 547.66 -130 548 C-132.34960938 547.14233398 -132.34960938 547.14233398 -135.34375 545.74609375 C-136.47055176 545.22821289 -137.59735352 544.71033203 -138.75830078 544.17675781 C-139.36579163 543.89401001 -139.97328247 543.61126221 -140.59918213 543.31994629 C-143.87612193 541.79864148 -147.16826512 540.31109799 -150.4609375 538.82421875 C-151.15452362 538.51086578 -151.84810974 538.19751282 -152.56271362 537.87466431 C-187.68968757 522.05921156 -187.68968757 522.05921156 -224.4609375 510.91796875 C-233.54115552 508.79796049 -237.37457683 505.32687442 -243 498 C-244.44720073 496.42718329 -245.90571573 494.86470684 -247.375 493.3125 C-291.86155697 443.66025964 -310.01768628 377.44909957 -307 312 C-306.53410028 304.54877393 -305.46988539 297.31376933 -304 290 C-303.80132324 288.96584961 -303.60264648 287.93169922 -303.39794922 286.86621094 C-293.07098265 233.90859809 -267.93379006 184.99373323 -233 144 C-232.06757871 142.89333837 -231.13529513 141.7865607 -230.203125 140.6796875 C-220.34649815 129.02668394 -210.0205169 117.93921068 -199.25 107.125 C-198.45779053 106.32811768 -197.66558105 105.53123535 -196.84936523 104.71020508 C-192.63594365 100.50824379 -188.34523218 96.46271669 -183.83496094 92.58105469 C-181.17703839 90.2909128 -178.59163963 87.92737117 -176 85.5625 C-175.05125 84.69753906 -174.1025 83.83257812 -173.125 82.94140625 C-172.42375 82.30074219 -171.7225 81.66007812 -171 81 C-172.50491192 77.54894544 -174.51583979 75.13275903 -177.0625 72.375 C-178.27486328 71.05242187 -178.27486328 71.05242187 -179.51171875 69.703125 C-180.33285156 68.81109375 -181.15398437 67.9190625 -182 67 C-183.4603512 65.37681317 -184.91871748 63.75183814 -186.375 62.125 C-189.29664086 58.87646226 -192.23702049 55.64643533 -195.19458008 52.43066406 C-198.87551735 48.42743275 -202.55675639 44.42382924 -206.1875 40.375 C-206.73792969 39.76398437 -207.28835937 39.15296875 -207.85546875 38.5234375 C-209 37 -209 37 -209 35 C-195.23422608 32.67555486 -181.46803399 30.35360198 -167.70137024 28.03443241 C-161.30186371 26.95628234 -154.90247922 25.87742086 -148.50341797 24.79663086 C-141.06517476 23.54044938 -133.62649261 22.28689199 -126.1875 21.03515625 C-124.94821747 20.82650562 -123.70893494 20.617855 -122.43209839 20.40288162 C-108.50742731 18.06095256 -94.57764993 15.75751734 -80.6328125 13.53857422 C-78.75372948 13.23915562 -78.75372948 13.23915562 -76.83668518 12.93368816 C-70.91142259 11.99068773 -64.98529296 11.05384825 -59.05737305 10.12770081 C-46.08030288 8.08348917 -33.20303863 5.72827607 -20.33642578 3.07484436 C-5.33850122 0 -5.33850122 0 0 0 Z " fill="#15766E" transform="translate(450,8)"/>
<path d="M0 0 C4.22319452 0.87128023 8.47700212 1.48741631 12.74658203 2.08544922 C13.87894287 2.35301025 13.87894287 2.35301025 15.03417969 2.62597656 C15.36417969 3.28597656 15.69417969 3.94597656 16.03417969 4.62597656 C15.70417969 5.28597656 15.37417969 5.94597656 15.03417969 6.62597656 C16.02417969 6.87347656 17.01417969 7.12097656 18.03417969 7.37597656 C22.31513164 8.58409797 26.12477184 10.53418951 30.03417969 12.62597656 C30.03417969 13.28597656 30.03417969 13.94597656 30.03417969 14.62597656 C30.94167969 14.89410156 31.84917969 15.16222656 32.78417969 15.43847656 C35.8122727 16.54489516 37.59306427 17.59171371 40.03417969 19.62597656 C40.77667969 20.14160156 41.51917969 20.65722656 42.28417969 21.18847656 C42.86167969 21.66285156 43.43917969 22.13722656 44.03417969 22.62597656 C44.03417969 23.28597656 44.03417969 23.94597656 44.03417969 24.62597656 C46.01417969 25.61597656 46.01417969 25.61597656 48.03417969 26.62597656 C48.03417969 27.28597656 48.03417969 27.94597656 48.03417969 28.62597656 C49.02417969 28.62597656 50.01417969 28.62597656 51.03417969 28.62597656 C53.22167969 30.43847656 53.22167969 30.43847656 55.03417969 32.62597656 C55.03417969 33.61597656 55.03417969 34.60597656 55.03417969 35.62597656 C56.02417969 35.95597656 57.01417969 36.28597656 58.03417969 36.62597656 C58.03417969 37.61597656 58.03417969 38.60597656 58.03417969 39.62597656 C58.69417969 39.62597656 59.35417969 39.62597656 60.03417969 39.62597656 C60.03417969 40.28597656 60.03417969 40.94597656 60.03417969 41.62597656 C60.69417969 41.62597656 61.35417969 41.62597656 62.03417969 41.62597656 C66.03417969 47.03774127 66.03417969 47.03774127 66.03417969 49.62597656 C66.69417969 49.62597656 67.35417969 49.62597656 68.03417969 49.62597656 C72.36701708 56.68689676 76.26673874 64.48797921 78.03417969 72.62597656 C78.69417969 72.62597656 79.35417969 72.62597656 80.03417969 72.62597656 C89.34676003 102.6386996 94.36998603 132.38141509 87.03417969 163.62597656 C86.87320801 164.31836426 86.71223633 165.01075195 86.54638672 165.72412109 C77.07914724 204.71168654 52.30586815 239.0765345 18.13183594 260.05566406 C-3.84068359 273.1095588 -28.58735871 281.04747676 -54.21582031 280.93847656 C-55.49545654 280.9364624 -56.77509277 280.93444824 -58.09350586 280.93237305 C-65.98286952 280.84854511 -73.26340419 280.349455 -80.92285156 278.37988281 C-84.08420314 277.52277124 -84.08420314 277.52277124 -87.88769531 277.21191406 C-92.02148463 276.73783533 -95.6148848 275.35640388 -99.40332031 273.68847656 C-104.21555141 271.65544142 -108.81523599 270.06458131 -113.95800781 269.12597656 C-117.58888158 268.2217901 -120.69465728 266.41024731 -123.96582031 264.62597656 C-120.25800359 263.39003765 -119.29071778 264.05816336 -115.77832031 265.56347656 C-114.87726563 265.94375 -113.97621094 266.32402344 -113.04785156 266.71582031 C-112.36078125 267.01617188 -111.67371094 267.31652344 -110.96582031 267.62597656 C-111.59746094 267.32046875 -112.22910156 267.01496094 -112.87988281 266.70019531 C-143.88438495 250.84054364 -165.69363158 221.30108179 -176.84082031 188.87597656 C-188.36881942 148.54849215 -183.14725525 107.07277513 -163.15332031 70.37597656 C-156.54501696 58.60312681 -148.22991144 48.43307836 -138.96582031 38.62597656 C-138.27101563 37.87832031 -137.57621094 37.13066406 -136.86035156 36.36035156 C-117.54883541 16.23979193 -92.03460069 3.43609491 -64.96582031 -2.37402344 C-63.71841064 -2.65113159 -63.71841064 -2.65113159 -62.44580078 -2.93383789 C-41.71819254 -7.16763467 -20.40123082 -4.52546087 0 0 Z " fill="#CCF7EE" transform="translate(431.9658203125,287.3740234375)"/>
<path d="M0 0 C5.53520327 0.56708096 10.58149127 1.55287926 15.875 3.25 C16.90947266 3.5761731 16.90947266 3.5761731 17.96484375 3.90893555 C23.59449289 5.7431752 28.83963287 8.08488876 34 11 C34 11.99 34 12.98 34 14 C34.72574219 14.268125 35.45148438 14.53625 36.19921875 14.8125 C38.96864024 15.98670381 41.30919434 17.3394324 43.8125 19 C44.60269531 19.515625 45.39289063 20.03125 46.20703125 20.5625 C46.79871094 21.036875 47.39039063 21.51125 48 22 C48 22.66 48 23.32 48 24 C48.66 24 49.32 24 50 24 C50 24.66 50 25.32 50 26 C50.59039062 26.10054688 51.18078125 26.20109375 51.7890625 26.3046875 C57.75419024 28.1806464 63.40907447 36.0147957 67 41 C67 41.66 67 42.32 67 43 C67.66 43 68.32 43 69 43 C69.33 43.66 69.66 44.32 70 45 C70.59167969 45.25265625 71.18335938 45.5053125 71.79296875 45.765625 C79.58760091 50.12510069 84.74115301 62.97584838 88.44921875 70.75 C89.74023799 73.4556121 91.12523344 76.05935544 92.5625 78.6875 C94.88252266 83.35051584 96.5241701 88.17990622 98.125 93.125 C98.36677979 93.85807373 98.60855957 94.59114746 98.85766602 95.34643555 C103.18734046 109.23728897 104.55495122 122.77613868 104.4375 137.25 C104.43412628 138.06082031 104.43075256 138.87164062 104.42727661 139.70703125 C104.35214141 152.19576196 103.61617705 163.97512211 100 176 C99.75330566 176.85400391 99.50661133 177.70800781 99.25244141 178.58789062 C95.69313801 190.71006083 91.07911846 201.9383031 85 213 C84.44699219 214.04285156 83.89398437 215.08570313 83.32421875 216.16015625 C72.49023163 235.78544557 55.97043796 253.11516621 37 265 C36.42540039 265.36029297 35.85080078 265.72058594 35.25878906 266.09179688 C23.60798136 273.2785193 11.49674509 278.44027296 -1.625 282.25 C-2.4713501 282.49637207 -3.3177002 282.74274414 -4.18969727 282.99658203 C-15.81746753 286.23503522 -27.12621473 287.44310561 -39.1875 287.4375 C-40.22905746 287.43860275 -40.22905746 287.43860275 -41.29165649 287.43972778 C-61.56890559 287.38384845 -83.55224371 283.86511091 -102 275 C-102.33 274.34 -102.66 273.68 -103 273 C-100.0703125 273.48828125 -97.140625 273.9765625 -94.2109375 274.46484375 C-93.15132813 274.64144531 -92.09171875 274.81804687 -91 275 C-90.07002197 275.17039795 -89.14004395 275.3407959 -88.18188477 275.51635742 C-53.1655952 280.83879045 -16.301623 269.46457084 12.03100586 248.8762207 C18.07294719 244.33052931 23.56077594 239.23983901 29 234 C29.69351563 233.36964844 30.38703125 232.73929688 31.1015625 232.08984375 C49.83391101 214.55235698 61.43124876 190.2806911 68.25 165.9375 C68.4965332 165.06383789 68.74306641 164.19017578 68.99707031 163.29003906 C72.24618581 151.15191879 73.39146759 139.04006846 73.375 126.5 C73.37258301 124.55311279 73.37258301 124.55311279 73.37011719 122.56689453 C73.18312041 107.67865127 70.98865767 93.42519134 65.81640625 79.4296875 C64.64883189 75.95489681 64.28040032 72.6452041 64 69 C63.34 69 62.68 69 62 69 C61.68546875 68.21496094 61.3709375 67.42992187 61.046875 66.62109375 C58.23865851 59.64638912 58.23865851 59.64638912 54.75 53 C53.31241312 50.53556534 52.44459312 48.778707 52 46 C51.34 46 50.68 46 50 46 C46 40.58823529 46 40.58823529 46 38 C45.34 38 44.68 38 44 38 C44 37.34 44 36.68 44 36 C43.34 36 42.68 36 42 36 C41.67 35.01 41.34 34.02 41 33 C40.34 32.67 39.68 32.34 39 32 C39 31.01 39 30.02 39 29 C37.02 28.01 37.02 28.01 35 27 C35 26.34 35 25.68 35 25 C34.01 25 33.02 25 32 25 C29.8125 23.125 29.8125 23.125 28 21 C28 20.34 28 19.68 28 19 C26.8553125 18.5978125 26.8553125 18.5978125 25.6875 18.1875 C23.02053536 17.00907376 22.00851945 16.00851945 20 14 C18.02379014 12.95377125 16.0262871 11.94560065 14 11 C14 10.34 14 9.68 14 9 C13.28457031 8.88785156 12.56914062 8.77570313 11.83203125 8.66015625 C8.80884002 7.95543995 6.43677312 6.86712202 3.6875 5.4375 C2.36298828 4.75494141 2.36298828 4.75494141 1.01171875 4.05859375 C0.34785156 3.70925781 -0.31601562 3.35992187 -1 3 C-0.67 2.01 -0.34 1.02 0 0 Z " fill="#459F97" transform="translate(448,291)"/>
<path d="M0 0 C1.22338521 0.57496572 2.45235599 1.13824941 3.6875 1.6875 C9.06038853 4.33852974 13.45065097 8.1477866 18 12 C18.78503906 12.6496875 19.57007813 13.299375 20.37890625 13.96875 C25.86779046 18.60337137 25.86779046 18.60337137 27 22 C23.95633529 20.58784926 21.42801796 18.88819532 18.75 16.875 C14.30878267 13.72529394 9.73447668 11.17521579 4.875 8.75 C4.21854492 8.42112793 3.56208984 8.09225586 2.88574219 7.75341797 C-19.21073819 -3.05212498 -45.74495977 -4.32744404 -69.12109375 3.2890625 C-83.73793093 8.3803204 -96.78218303 15.55753013 -109 25 C-109.79921875 25.60070312 -110.5984375 26.20140625 -111.421875 26.8203125 C-132.0130932 43.5788587 -145.66623225 72.48921264 -148.7890625 98.55419922 C-150.04469574 113.11315039 -149.95123126 127.87135487 -146 142 C-145.59974609 143.59714844 -145.59974609 143.59714844 -145.19140625 145.2265625 C-140.38005058 162.80404856 -130.41681689 178.78467399 -118 192 C-122.39116738 192 -123.80972878 189.63806718 -126.85180664 186.66796875 C-141.5784278 171.813235 -153.96875983 153.97457289 -158 133 C-158.20238281 131.98421875 -158.40476562 130.9684375 -158.61328125 129.921875 C-164.39300324 96.10853549 -155.91789314 62.47614714 -136.24462891 34.65380859 C-132.55505651 29.75126574 -128.27495137 25.38693006 -124 21 C-123.44183594 20.36835938 -122.88367188 19.73671875 -122.30859375 19.0859375 C-93.5130818 -12.64175452 -36.68229043 -22.83991668 0 0 Z " fill="#6BC1B5" transform="translate(437,323)"/>
<path d="M0 0 C0.67578125 1.796875 0.67578125 1.796875 1 4 C-1.79848032 8.24318316 -6.44930021 11.36940572 -10.44921875 14.421875 C-17.15483768 19.75677293 -23.02488229 25.8785102 -29 32 C-31.22344197 34.27654664 -33.45342029 36.5463978 -35.6875 38.8125 C-36.19265137 39.33424805 -36.69780273 39.85599609 -37.21826172 40.39355469 C-38.44131113 41.63386573 -39.71639042 42.82247386 -41 44 C-41.66 44 -42.32 44 -43 44 C-43.33257812 45.07314453 -43.33257812 45.07314453 -43.671875 46.16796875 C-45.31727145 49.6765347 -47.43638439 51.65647762 -50.25 54.3125 C-54.67516069 58.57683754 -58.49542851 62.95656218 -62 68 C-62.99586143 69.33642725 -63.99486489 70.6705335 -65 72 C-65.99 71.67 -66.98 71.34 -68 71 C-54.53592272 55.25874709 -54.53592272 55.25874709 -49 49 C-48.36030273 48.27546631 -47.72060547 47.55093262 -47.06152344 46.80444336 C-41.54231978 40.60824929 -35.81770365 34.6657096 -29.9375 28.8125 C-28.6680957 27.53729492 -28.6680957 27.53729492 -27.37304688 26.23632812 C-22.41032992 21.28126378 -17.32357963 16.56234875 -12 12 C-10.00863604 10.24214523 -8.03516432 8.46649461 -6.0625 6.6875 C-5.12535156 5.84574219 -4.18820312 5.00398438 -3.22265625 4.13671875 C-0.96113804 2.20132969 -0.96113804 2.20132969 0 0 Z " fill="#338981" transform="translate(280,87)"/>
<path d="M0 0 C-11.61728199 6.39275015 -23.17573006 10.67528914 -36 14 C-37.22203125 14.34160156 -38.4440625 14.68320312 -39.703125 15.03515625 C-49.34357954 17.317863 -59.02545267 17.28356097 -68.875 17.3125 C-69.97044128 17.31814972 -69.97044128 17.31814972 -71.0880127 17.32391357 C-73.18137745 17.32938742 -75.27390341 17.3185699 -77.3671875 17.30078125 C-78.59550293 17.29216064 -79.82381836 17.28354004 -81.08935547 17.2746582 C-84 17 -84 17 -86 15 C-84.81148438 15.02320313 -83.62296875 15.04640625 -82.3984375 15.0703125 C-51.81720267 15.672984 -51.81720267 15.672984 -23 7 C-19.03499954 5.74789459 -15.09011035 4.74365643 -11 4 C-11 3.34 -11 2.68 -11 2 C-4.03571429 -1.34821429 -4.03571429 -1.34821429 0 0 Z " fill="#276562" transform="translate(476,561)"/>
<path d="M0 0 C-16.03828617 10.69219078 -48.96233999 6.48915012 -67 3 C-67 2.67 -67 2.34 -67 2 C-66.08584824 2.00333092 -66.08584824 2.00333092 -65.15322876 2.00672913 C-58.82709335 2.0288021 -52.50096882 2.04391505 -46.17480469 2.05493164 C-43.81184444 2.05996959 -41.44888732 2.06680008 -39.0859375 2.07543945 C-35.69530465 2.08752854 -32.30471291 2.09323359 -28.9140625 2.09765625 C-27.85256989 2.10281754 -26.79107727 2.10797882 -25.69741821 2.11329651 C-24.71655243 2.11337204 -23.73568665 2.11344757 -22.72509766 2.11352539 C-21.85905914 2.115746 -20.99302063 2.11796661 -20.10073853 2.12025452 C-17.9416034 2.13553746 -17.9416034 2.13553746 -16 1 C-10.6922635 0.22675062 -5.36297345 -0.14113088 0 0 Z " fill="#C2E7E4" transform="translate(448,597)"/>
<path d="M0 0 C4.39453125 0.73242188 4.39453125 0.73242188 8.7890625 1.46484375 C10.37847656 1.72974609 10.37847656 1.72974609 12 2 C13.3303125 2.26296875 13.3303125 2.26296875 14.6875 2.53125 C19.56789329 3.22187169 24.4531096 3.3687998 29.375 3.5625 C30.39722656 3.60568359 31.41945313 3.64886719 32.47265625 3.69335938 C34.98165288 3.79887792 37.49073943 3.90099213 40 4 C40 4.33 40 4.66 40 5 C36.37 5 32.74 5 29 5 C28.67 6.32 28.34 7.64 28 9 C21.43944596 8.46859512 15.71095737 7.20651426 9.5 5.0625 C8.28570312 4.66514648 8.28570312 4.66514648 7.046875 4.25976562 C1.12960626 2.25921252 1.12960626 2.25921252 0 0 Z " fill="#216562" transform="translate(345,564)"/>
<path d="M0 0 C0.66 0.33 1.32 0.66 2 1 C-8.99289383 13.01210253 -20.4305543 24.54432344 -32 36 C-32.66 35.67 -33.32 35.34 -34 35 C-23.25133887 22.77963955 -11.54904301 11.45441452 0 0 Z " fill="#DFF7F6" transform="translate(329,178)"/>
<path d="M0 0 C11.78655021 1.63495652 23.08229326 4.18632739 34.5 7.5 C36.03998657 7.94496826 36.03998657 7.94496826 37.61108398 8.39892578 C42.91415474 9.96766587 47.97587101 11.68551361 53 14 C52.34 14.66 51.68 15.32 51 16 C50.23429688 15.61908203 50.23429688 15.61908203 49.453125 15.23046875 C44.27458672 12.77892669 39.21645856 11.15334783 33.64453125 9.8515625 C30.79933929 9.18676952 27.96820418 8.49290883 25.13671875 7.7734375 C23.8369812 7.44363892 23.8369812 7.44363892 22.51098633 7.10717773 C20.80094772 6.67273892 19.0911353 6.23740842 17.3815918 5.80102539 C11.61983707 4.35011653 5.8357511 3.11558999 0 2 C0 1.34 0 0.68 0 0 Z " fill="#46998F" transform="translate(479,217)"/>
<path d="M0 0 C4.83006075 0.63205873 8.71381186 2.6338195 13 4.8125 C13.69867188 5.15603516 14.39734375 5.49957031 15.1171875 5.85351562 C19.13189276 7.87223063 22.58484926 10.03175375 26 13 C21.25 12.125 21.25 12.125 19 11 C19 11.99 19 12.98 19 14 C18.01 14 17.02 14 16 14 C16 13.34 16 12.68 16 12 C15.34 12 14.68 12 14 12 C14 11.34 14 10.68 14 10 C13.27425781 9.731875 12.54851562 9.46375 11.80078125 9.1875 C9.03135976 8.01329619 6.69080566 6.6605676 4.1875 5 C3.39730469 4.484375 2.60710937 3.96875 1.79296875 3.4375 C1.20128906 2.963125 0.60960937 2.48875 0 2 C0 1.34 0 0.68 0 0 Z " fill="#CFF1EF" transform="translate(482,303)"/>
<path d="M0 0 C-2.08010175 4.58346551 -5.2221291 7.60507675 -8.75 11.125 C-9.41306152 11.78790039 -10.07612305 12.45080078 -10.75927734 13.13378906 C-16.99103093 19.2252876 -23.6924059 24.27933197 -31 29 C-31.87398438 29.58265625 -32.74796875 30.1653125 -33.6484375 30.765625 C-36 32 -36 32 -40 32 C-40 31.34 -40 30.68 -40 30 C-38.5459375 29.443125 -38.5459375 29.443125 -37.0625 28.875 C-32.98883792 27.15408561 -29.51758174 24.7534012 -25.91796875 22.20703125 C-24 21 -24 21 -22 21 C-22 20.34 -22 19.68 -22 19 C-20.49609375 17.7734375 -20.49609375 17.7734375 -18.4375 16.375 C-14.46727123 13.52602589 -11.5011108 10.3339376 -8.4453125 6.5390625 C-7.72988281 5.77722656 -7.72988281 5.77722656 -7 5 C-6.34 5 -5.68 5 -5 5 C-5 4.34 -5 3.68 -5 3 C-2.46153846 0 -2.46153846 0 0 0 Z " fill="#2F726E" transform="translate(516,527)"/>
<path d="M0 0 C5.23057643 1.55092673 8.74268556 4.90504074 12.75 8.4375 C13.43449219 9.02337891 14.11898438 9.60925781 14.82421875 10.21289062 C19.87197897 14.61593692 19.87197897 14.61593692 21 18 C17.8744169 16.54756503 15.21642113 14.78268695 12.4375 12.75 C7.19484623 9.02310604 1.70324957 5.96005158 -4 3 C-3.01 2.67 -2.02 2.34 -1 2 C-0.34 2.33 0.32 2.66 1 3 C0.67 2.01 0.34 1.02 0 0 Z " fill="#99D1CA" transform="translate(443,327)"/>
<path d="M0 0 C1.09570312 0.00902344 2.19140625 0.01804687 3.3203125 0.02734375 C4.58488281 0.04474609 4.58488281 0.04474609 5.875 0.0625 C5.875 0.3925 5.875 0.7225 5.875 1.0625 C-0.01402053 2.06462724 -5.90391489 3.06138841 -11.79467773 4.05322266 C-13.79785584 4.39127213 -15.80078878 4.73077772 -17.8034668 5.07177734 C-20.68474885 5.56211708 -23.56687656 6.04718607 -26.44921875 6.53125 C-27.34211105 6.68436646 -28.23500336 6.83748291 -29.154953 6.99523926 C-33.18449636 7.66713158 -37.02228241 8.26967059 -41.125 8.0625 C-41.125 7.4025 -41.125 6.7425 -41.125 6.0625 C-39.07421875 5.83463542 -37.0234375 5.60677083 -34.97265625 5.37890625 C-33.11359771 5.24363386 -33.11359771 5.24363386 -32.125 4.0625 C-29.02457227 3.73803663 -25.9229275 3.54915559 -22.8125 3.34375 C-20.20903248 3.35642201 -20.20903248 3.35642201 -19.125 2.0625 C-17.31688816 1.85353683 -15.50283968 1.69469639 -13.6875 1.5625 C-8.85067346 1.20935491 -4.88923575 -0.05201315 0 0 Z " fill="#D2F6F4" transform="translate(325.125,27.9375)"/>
<path d="M0 0 C0 0.33 0 0.66 0 1 C-32.96059981 7.42289947 -32.96059981 7.42289947 -46 7 C-46 6.67 -46 6.34 -46 6 C-40.2545124 4.97319064 -34.50709245 3.95830737 -28.75756836 2.9543457 C-26.80256628 2.61125199 -24.84812874 2.2649249 -22.89428711 1.9152832 C-20.08329699 1.41283569 -17.27047166 0.92210941 -14.45703125 0.43359375 C-13.58601273 0.27531601 -12.7149942 0.11703827 -11.81758118 -0.04603577 C-7.60509544 -0.76595948 -4.18108504 -1.29138258 0 0 Z " fill="#3C9087" transform="translate(359,25)"/>
<path d="M0 0 C0.33 0.66 0.66 1.32 1 2 C-1.45935203 6.24797169 -4.3574116 9.44217277 -7.875 12.875 C-12.07805745 16.9852064 -15.63364288 21.19691102 -19 26 C-19.99624547 27.33614099 -20.99531962 28.67018982 -22 30 C-22.99 29.67 -23.98 29.34 -25 29 C-13.00717187 14.97882819 -13.00717187 14.97882819 -7.53515625 8.75390625 C-4.99921798 5.85661291 -2.5007365 2.92769151 0 0 Z " fill="#3F9189" transform="translate(237,129)"/>
<path d="M0 0 C0.66 0.33 1.32 0.66 2 1 C-3.04897967 6.94736382 -8.3918017 12.51607898 -13.9375 18 C-15.10635742 19.16208984 -15.10635742 19.16208984 -16.29882812 20.34765625 C-18.1969242 22.23410757 -20.09733149 24.11816245 -22 26 C-22.66 25.67 -23.32 25.34 -24 25 C-16.2132704 16.44011994 -8.24809219 8.1164737 0 0 Z " fill="#28736E" transform="translate(306,263)"/>
<path d="M0 0 C0.33 0 0.66 0 1 0 C1.18785757 5.35394068 0.86188437 10.32537769 0.0625 15.625 C-1.43581218 26.02817464 -1.66355065 36.50578928 -2 47 C-2.33 47 -2.66 47 -3 47 C-3.31953185 31.04962526 -3.51387117 15.62417717 0 0 Z " fill="#CCEBE9" transform="translate(239,317)"/>
<path d="M0 0 C0 3.64703713 -1.24685079 4.91970258 -3.58203125 7.6015625 C-5 9 -5 9 -7.375 10.375 C-11.37419823 12.85069414 -14.02415385 16.40051411 -17 20 C-17.77150391 20.91845703 -17.77150391 20.91845703 -18.55859375 21.85546875 C-19.71233834 23.23146443 -20.8572556 24.61485527 -22 26 C-22.66 25.67 -23.32 25.34 -24 25 C-8.00735294 6.06617647 -8.00735294 6.06617647 0 0 Z " fill="#3B847E" transform="translate(62,570)"/>
<path d="M0 0 C0.99 0.33 1.98 0.66 3 1 C-5 9 -13 17 -21 25 C-20.40716913 21.39428893 -18.97258223 19.45570562 -16.5625 16.75 C-15.94503906 16.04359375 -15.32757813 15.3371875 -14.69140625 14.609375 C-13 13 -13 13 -11 13 C-11 12.34 -11 11.68 -11 11 C-10.34 11 -9.68 11 -9 11 C-9 10.34 -9 9.68 -9 9 C-8.34 9 -7.68 9 -7 9 C-7 8.34 -7 7.68 -7 7 C-6.34 7 -5.68 7 -5 7 C-5 6.34 -5 5.68 -5 5 C-4.34 5 -3.68 5 -3 5 C-2.690625 4.360625 -2.38125 3.72125 -2.0625 3.0625 C-1 1 -1 1 0 0 Z " fill="#D9FAF8" transform="translate(252,111)"/>
<path d="M0 0 C0.66 0 1.32 0 2 0 C3.31730567 1.61399614 4.55404267 3.29413839 5.75 5 C6.45640625 5.99644531 7.1628125 6.99289062 7.890625 8.01953125 C8.58671875 9.00308594 9.2828125 9.98664063 10 11 C11.16022999 12.56728547 12.325976 14.13052055 13.5 15.6875 C14.22703125 16.65236328 14.22703125 16.65236328 14.96875 17.63671875 C15.47921875 18.31154297 15.47921875 18.31154297 16 19 C11.56373447 16.97699054 8.61748641 14.02132242 5.1875 10.625 C4.27194336 9.75875 4.27194336 9.75875 3.33789062 8.875 C2.76619141 8.31039063 2.19449219 7.74578125 1.60546875 7.1640625 C1.08106201 6.65311035 0.55665527 6.1421582 0.01635742 5.61572266 C-1 4 -1 4 -0.6628418 1.80224609 C-0.444104 1.20750488 -0.22536621 0.61276367 0 0 Z " fill="#5DAC9E" transform="translate(303,497)"/>
<path d="M0 0 C0 0.33 0 0.66 0 1 C-2.60356241 1.50333542 -5.20776651 2.00279378 -7.8125 2.5 C-8.55048828 2.64308594 -9.28847656 2.78617188 -10.04882812 2.93359375 C-13.07794391 3.50926281 -15.909196 4 -19 4 C-20.03125 4.350625 -21.0625 4.70125 -22.125 5.0625 C-26.73966977 6.17895236 -30.37462994 5.77613919 -35 5 C-35 4.67 -35 4.34 -35 4 C-33.84213989 3.82609741 -33.84213989 3.82609741 -32.66088867 3.64868164 C-29.16933879 3.12270172 -25.67841902 2.59265008 -22.1875 2.0625 C-20.97255859 1.88009766 -19.75761719 1.69769531 -18.50585938 1.50976562 C-17.34248047 1.33251953 -16.17910156 1.15527344 -14.98046875 0.97265625 C-13.37014771 0.72914429 -13.37014771 0.72914429 -11.72729492 0.48071289 C-4.21607347 -0.84321469 -4.21607347 -0.84321469 0 0 Z " fill="#368C84" transform="translate(419,15)"/>
<path d="M0 0 C0.33 0.66 0.66 1.32 1 2 C1.66 2 2.32 2 3 2 C2.67 3.32 2.34 4.64 2 6 C2.66 6.33 3.32 6.66 4 7 C1.69 10.63 -0.62 14.26 -3 18 C-4.09530553 13.61877789 -3.6791828 11.63078092 -2.625 7.3125 C-2.34914062 6.15363281 -2.07328125 4.99476563 -1.7890625 3.80078125 C-1 1 -1 1 0 0 Z " fill="#367973" transform="translate(6,664)"/>
<path d="M0 0 C0.66 0.33 1.32 0.66 2 1 C-7.75624462 12.416882 -7.75624462 12.416882 -12 16 C-12.66 16 -13.32 16 -14 16 C-14.66 17.32 -15.32 18.64 -16 20 C-16.99 20 -17.98 20 -19 20 C-12.81418122 13.17740576 -6.59945343 6.42926695 0 0 Z " fill="#D9F0EF" transform="translate(40,635)"/>
<path d="M0 0 C-7.60841377 5.07227585 -20.11724588 4.33241076 -29 4 C-29 3.67 -29 3.34 -29 3 C-25.10667179 2.29777768 -21.21005728 1.61582272 -17.3125 0.9375 C-16.20970703 0.73833984 -15.10691406 0.53917969 -13.97070312 0.33398438 C-12.90400391 0.15029297 -11.83730469 -0.03339844 -10.73828125 -0.22265625 C-9.75899658 -0.39547119 -8.77971191 -0.56828613 -7.77075195 -0.74633789 C-4.93089791 -1.00632629 -2.74932093 -0.70433521 0 0 Z " fill="#3F938B" transform="translate(282,38)"/>
<path d="M0 0 C1.77155654 0.11429397 3.54226229 0.24183037 5.3125 0.375 C6.79169922 0.47941406 6.79169922 0.47941406 8.30078125 0.5859375 C11 1 11 1 14 3 C15.92249447 3.54005913 15.92249447 3.54005913 18.01171875 3.8515625 C18.76904297 3.98046875 19.52636719 4.109375 20.30664062 4.2421875 C21.09232422 4.36851562 21.87800781 4.49484375 22.6875 4.625 C23.48478516 4.7590625 24.28207031 4.893125 25.10351562 5.03125 C27.0679402 5.3606146 29.03383927 5.68116313 31 6 C31 6.66 31 7.32 31 8 C25.33733473 7.3800468 19.90893415 6.4011945 14.375 5.0625 C13.65054687 4.89298828 12.92609375 4.72347656 12.1796875 4.54882812 C8.03923036 3.56246922 4.02019819 2.41404447 0 1 C0 0.67 0 0.34 0 0 Z " fill="#D6F3F2" transform="translate(348,591)"/>
<path d="M0 0 C2.62187494 1.04874998 3.79371361 1.64931313 5.25 4.125 C5.4975 4.74375 5.745 5.3625 6 6 C6.66 6 7.32 6 8 6 C8 6.66 8 7.32 8 8 C8.99 8.33 9.98 8.66 11 9 C12.01351664 10.65848177 13.01120795 12.32665961 14 14 C14.886875 14.86625 15.77375 15.7325 16.6875 16.625 C19 19 19 19 19 22 C12.22894943 15.38723373 5.72342736 8.55492412 0 1 C0 0.67 0 0.34 0 0 Z " fill="#3B9087" transform="translate(256,60)"/>
<path d="M0 0 C0.66 0.33 1.32 0.66 2 1 C0.08991236 3.7546231 -1.82921363 6.5028288 -3.75 9.25 C-4.28882813 10.02730469 -4.82765625 10.80460938 -5.3828125 11.60546875 C-8.02285226 15.37235475 -10.56541102 18.89886626 -14 22 C-13.67 20.35 -13.34 18.7 -13 17 C-12.34 17 -11.68 17 -11 17 C-10.76539063 16.30519531 -10.53078125 15.61039063 -10.2890625 14.89453125 C-8.75644702 11.45311285 -6.67175588 8.64098452 -4.375 5.6875 C-3.74464844 4.86282227 -3.74464844 4.86282227 -3.1015625 4.02148438 C-2.07279961 2.67707832 -1.0370991 1.33798587 0 0 Z " fill="#226763" transform="translate(280,229)"/>
<path d="M0 0 C-1.48483103 3.23693164 -3.32707435 5.9325625 -5.5 8.75 C-6.1084375 9.54921875 -6.716875 10.3484375 -7.34375 11.171875 C-7.8903125 11.77515625 -8.436875 12.3784375 -9 13 C-9.66 13 -10.32 13 -11 13 C-9.7922599 8.04190905 -8.94566427 4.7912701 -4.9375 1.4375 C-2 0 -2 0 0 0 Z " fill="#155B57" transform="translate(19,657)"/>
<path d="M0 0 C1.51400391 0.01740234 1.51400391 0.01740234 3.05859375 0.03515625 C4.07050781 0.04417969 5.08242188 0.05320312 6.125 0.0625 C7.29869141 0.07990234 7.29869141 0.07990234 8.49609375 0.09765625 C8.49609375 0.42765625 8.49609375 0.75765625 8.49609375 1.09765625 C4.41563835 1.96598073 0.33137405 2.81484853 -3.75390625 3.66015625 C-4.91277344 3.90701172 -6.07164062 4.15386719 -7.265625 4.40820312 C-8.38066406 4.63701172 -9.49570312 4.86582031 -10.64453125 5.1015625 C-11.67094727 5.31627197 -12.69736328 5.53098145 -13.75488281 5.75219727 C-16.39698305 6.08421963 -18.01283164 5.95494029 -20.50390625 5.09765625 C-15.33398747 2.93569021 -10.88113898 1.71145346 -5.2890625 1.30859375 C-2.7894457 1.01323422 -2.76071845 0.10767233 0 0 Z " fill="#CBF2F0" transform="translate(426.50390625,9.90234375)"/>
<path d="M0 0 C0.66 0 1.32 0 2 0 C0.42108151 4.66539191 -2.10388467 8.34216741 -4.9375 12.3125 C-5.60168945 13.28026367 -5.60168945 13.28026367 -6.27929688 14.26757812 C-7.4410425 15.90371764 -8.71394559 17.45965282 -10 19 C-10.99 19 -11.98 19 -13 19 C-12.64808594 18.55011719 -12.29617188 18.10023438 -11.93359375 17.63671875 C-8.11151842 12.65704358 -4.75813738 7.49997547 -1.515625 2.125 C-1.01546875 1.42375 -0.5153125 0.7225 0 0 Z " fill="#3F8781" transform="translate(529,506)"/>
<path d="M0 0 C2.64745321 0.28056438 5.29237964 0.57385631 7.9375 0.875 C8.69224609 0.95363281 9.44699219 1.03226562 10.22460938 1.11328125 C12.15919299 1.33883808 14.08176019 1.66258974 16 2 C16.33 2.66 16.66 3.32 17 4 C16.67 4.66 16.34 5.32 16 6 C16.66 6.33 17.32 6.66 18 7 C13.82423832 6.31583566 10.11919593 4.98634991 6.1875 3.4375 C5.02605469 2.98246094 3.86460937 2.52742188 2.66796875 2.05859375 C1.34732422 1.53458984 1.34732422 1.53458984 0 1 C0 0.67 0 0.34 0 0 Z " fill="#89CDC7" transform="translate(431,288)"/>
<path d="M0 0 C3.52648783 1.69476842 6.8767124 3.64502684 10.25 5.625 C11.32765625 6.25664063 12.4053125 6.88828125 13.515625 7.5390625 C14.74539063 8.26222656 14.74539063 8.26222656 16 9 C15.01 9.495 15.01 9.495 14 10 C11.23325418 8.92664301 8.56805742 7.79739939 5.875 6.5625 C5.12089844 6.22412109 4.36679687 5.88574219 3.58984375 5.53710938 C1.72340669 4.69839399 -0.1387143 3.85008607 -2 3 C-1.34 2.01 -0.68 1.02 0 0 Z " fill="#47837E" transform="translate(306,546)"/>
<path d="M0 0 C-0.33 0.99 -0.66 1.98 -1 3 C-3.5625 4.1875 -3.5625 4.1875 -6 5 C-6.33 4.34 -6.66 3.68 -7 3 C-7.639375 3.350625 -8.27875 3.70125 -8.9375 4.0625 C-13.1430267 5.34990613 -16.71464763 4.6908847 -21 4 C-21 3.67 -21 3.34 -21 3 C-17.87539701 2.49749755 -14.75025588 1.99842443 -11.625 1.5 C-10.29082031 1.28537109 -10.29082031 1.28537109 -8.9296875 1.06640625 C-8.07890625 0.93105469 -7.228125 0.79570312 -6.3515625 0.65625 C-5.56604004 0.53056641 -4.78051758 0.40488281 -3.97119141 0.27539062 C-2 0 -2 0 0 0 Z " fill="#499890" transform="translate(450,8)"/>
<path d="M0 0 C-2.58090767 1.31746333 -5.16450458 2.62909617 -7.75 3.9375 C-8.47960937 4.31068359 -9.20921875 4.68386719 -9.9609375 5.06835938 C-10.66992188 5.42607422 -11.37890625 5.78378906 -12.109375 6.15234375 C-13.08342285 6.6472229 -13.08342285 6.6472229 -14.07714844 7.15209961 C-16.03293079 8.01452116 -17.91540694 8.54374179 -20 9 C-20 8.34 -20 7.68 -20 7 C-17.03 6.01 -14.06 5.02 -11 4 C-11 3.34 -11 2.68 -11 2 C-4.296875 -1.22265625 -4.296875 -1.22265625 0 0 Z " fill="#266A67" transform="translate(476,561)"/>
<path d="M0 0 C0.33 0.66 0.66 1.32 1 2 C-3.03523352 6.81123996 -7.04467233 11.13242719 -12 15 C-12 12 -12 12 -9.375 9.08203125 C-8.25750594 7.98449244 -7.13214357 6.89492105 -6 5.8125 C-5.42765625 5.25369141 -4.8553125 4.69488281 -4.265625 4.11914062 C-2.85037212 2.73926907 -1.42602845 1.36873266 0 0 Z " fill="#317D77" transform="translate(484,518)"/>
<path d="M0 0 C0.66 0 1.32 0 2 0 C0.76759349 3.69721953 -0.69224952 4.58086095 -3.75 6.9375 C-5.04164063 7.94103516 -5.04164063 7.94103516 -6.359375 8.96484375 C-7.23078125 9.63644531 -8.1021875 10.30804688 -9 11 C-10.66913793 12.33023838 -12.3365489 13.66265712 -14 15 C-14 14.01 -14 13.02 -14 12 C-13.34 12 -12.68 12 -12 12 C-11.773125 11.4225 -11.54625 10.845 -11.3125 10.25 C-9.65151778 7.40260191 -7.68475439 5.87932807 -5 4 C-4.34 4 -3.68 4 -3 4 C-3 3.34 -3 2.68 -3 2 C-2.01 2 -1.02 2 0 2 C0 1.34 0 0.68 0 0 Z " fill="#D6F4F3" transform="translate(312,256)"/>
<path d="M0 0 C1.85776765 3.13498292 2.20140476 5.37471432 2 9 C2.66 9 3.32 9 4 9 C4.33 7.35 4.66 5.7 5 4 C6.4552777 6.9105554 5.63516661 8.95849052 5.0625 12.125 C4.86785156 13.22070312 4.67320312 14.31640625 4.47265625 15.4453125 C4.31667969 16.28835938 4.16070312 17.13140625 4 18 C3.34 17.67 2.68 17.34 2 17 C1.3671875 14.453125 1.3671875 14.453125 0.875 11.25 C0.62363281 9.67992187 0.62363281 9.67992187 0.3671875 8.078125 C0.04101672 5.3438423 -0.07126854 2.74892942 0 0 Z " fill="#C1ECE9" transform="translate(237,370)"/>
<path d="M0 0 C0.66 0.33 1.32 0.66 2 1 C-3.16302947 6.01961198 -9.14037101 8.84352981 -16 11 C-16.66 10.67 -17.32 10.34 -18 10 C-15.04894616 8.2995208 -12.08809878 6.61688907 -9.125 4.9375 C-8.28324219 4.45216797 -7.44148438 3.96683594 -6.57421875 3.46679688 C-5.76855469 3.01240234 -4.96289062 2.55800781 -4.1328125 2.08984375 C-3.38918457 1.66566162 -2.64555664 1.24147949 -1.87939453 0.80444336 C-1.25919434 0.53897705 -0.63899414 0.27351074 0 0 Z " fill="#276F6B" transform="translate(451,546)"/>
<path d="M0 0 C5.05692659 0.08085202 8.77669158 1.26880737 13.375 3.3125 C9.15580897 4.56430279 5.41411435 3.98502421 1.125 3.375 C0.37992188 3.27509766 -0.36515625 3.17519531 -1.1328125 3.07226562 C-2.96445442 2.82569844 -4.79486251 2.56999609 -6.625 2.3125 C-4.16503225 -0.14746775 -3.38881446 0.01573753 0 0 Z " fill="#C2E8E6" transform="translate(180.625,531.6875)"/>
<path d="M0 0 C2 0 2 0 4.125 1.8125 C6 4 6 4 6 7 C6.99 7.33 7.98 7.66 9 8 C9 8.99 9 9.98 9 11 C9.66 11 10.32 11 11 11 C11 11.99 11 12.98 11 14 C10.34 14 9.68 14 9 14 C4.92376901 9.70923053 2.49154371 5.35220501 0 0 Z " fill="#B3E5E0" transform="translate(481,316)"/>
<path d="M0 0 C-3.08454131 2.05636087 -4.84809674 2.51134354 -8.4375 3.125 C-9.38496094 3.29257812 -10.33242188 3.46015625 -11.30859375 3.6328125 C-14 4 -14 4 -18 4 C-18 3.34 -18 2.68 -18 2 C-12.8679042 -0.5660479 -5.62150562 -0.14793436 0 0 Z " fill="#D0EEEC" transform="translate(448,597)"/>
<path d="M0 0 C0 3 0 3 -1.4609375 4.82421875 C-2.09257812 5.43910156 -2.72421875 6.05398438 -3.375 6.6875 C-4.00148438 7.31011719 -4.62796875 7.93273437 -5.2734375 8.57421875 C-7 10 -7 10 -9 10 C-9.33 10.99 -9.66 11.98 -10 13 C-11.65 13.33 -13.3 13.66 -15 14 C-11.42115302 10.30931405 -7.66273258 6.90801605 -3.76953125 3.55078125 C-2.47133312 2.41306678 -1.2205967 1.2205967 0 0 Z " fill="#D1EFED" transform="translate(507,537)"/>
<path d="M0 0 C-3.39106733 2.26071155 -6.91514137 3.65268823 -10.6875 5.125 C-11.38939453 5.40214844 -12.09128906 5.67929687 -12.81445312 5.96484375 C-14.54173775 6.64635741 -16.27070737 7.32359772 -18 8 C-17 5 -17 5 -14.453125 3.61328125 C-13.39609375 3.18402344 -12.3390625 2.75476563 -11.25 2.3125 C-10.20328125 1.87550781 -9.1565625 1.43851563 -8.078125 0.98828125 C-5.1565335 0.05025758 -3.03646256 -0.20805392 0 0 Z " fill="#DCF8F7" transform="translate(110,542)"/>
<path d="M0 0 C1.93956814 0.255602 3.87665989 0.53004646 5.8125 0.8125 C7.43091797 1.03873047 7.43091797 1.03873047 9.08203125 1.26953125 C12.06440991 2.01612403 13.14223479 2.62075684 15 5 C13 6 13 6 10.21484375 5.29296875 C9.13332031 4.92816406 8.05179687 4.56335938 6.9375 4.1875 C5.85339844 3.83042969 4.76929688 3.47335937 3.65234375 3.10546875 C1 2 1 2 0 0 Z " fill="#4E7A77" transform="translate(345,564)"/>
<path d="M0 0 C3.66786393 1.50349377 5.68910393 3.63728792 8.25 6.625 C8.95640625 7.44226563 9.6628125 8.25953125 10.390625 9.1015625 C10.92171875 9.72804688 11.4528125 10.35453125 12 11 C9 11 9 11 7.24609375 9.28515625 C6.35083984 8.18494141 6.35083984 8.18494141 5.4375 7.0625 C3.08714476 4.07351045 3.08714476 4.07351045 0 2 C0 1.34 0 0.68 0 0 Z " fill="#5BA89F" transform="translate(602,277)"/>
<path d="M0 0 C0 3 0 3 -1.390625 4.421875 C-2.00421875 4.86015625 -2.6178125 5.2984375 -3.25 5.75 C-4.15492188 6.42289063 -4.15492188 6.42289063 -5.078125 7.109375 C-7 8 -7 8 -11 7 C-7.37 4.69 -3.74 2.38 0 0 Z " fill="#33807A" transform="translate(333,244)"/>
<path d="M0 0 C0.57421875 1.88671875 0.57421875 1.88671875 1 4 C-0.1875 5.8125 -0.1875 5.8125 -2 8 C-3.39254831 10.3026781 -4.68896714 12.64918246 -6 15 C-6.66 15 -7.32 15 -8 15 C-6.62712658 11.30123909 -4.93644547 8.0485524 -2.875 4.6875 C-2.33617187 3.80449219 -1.79734375 2.92148438 -1.2421875 2.01171875 C-0.83226562 1.34785156 -0.42234375 0.68398437 0 0 Z " fill="#3A8C85" transform="translate(192,185)"/>
<path d="M0 0 C0.66 0 1.32 0 2 0 C0.59155282 3.21524305 -1.10344786 5.32183868 -3.625 7.75 C-4.57246094 8.67039063 -4.57246094 8.67039063 -5.5390625 9.609375 C-6.02117187 10.06828125 -6.50328125 10.5271875 -7 11 C-7.33 10.01 -7.66 9.02 -8 8 C-6.37660195 6.29115995 -4.70680947 4.62553283 -3 3 C-2.34 3 -1.68 3 -1 3 C-0.67 2.01 -0.34 1.02 0 0 Z " fill="#2D726C" transform="translate(322,182)"/>
<path d="M0 0 C0.66 0.33 1.32 0.66 2 1 C-0.97 5.29 -3.94 9.58 -7 14 C-7.33 13.01 -7.66 12.02 -8 11 C-7.67 10.34 -7.34 9.68 -7 9 C-6.34 9 -5.68 9 -5 9 C-4.7834375 8.071875 -4.7834375 8.071875 -4.5625 7.125 C-4 5 -4 5 -3 3 C-2.34 3 -1.68 3 -1 3 C-0.67 2.01 -0.34 1.02 0 0 Z " fill="#D1F7F4" transform="translate(206,163)"/>
<path d="M0 0 C0 0.66 0 1.32 0 2 C-1.78104718 3.60178593 -3.62537278 5.13381926 -5.5 6.625 C-7.03140625 7.85089844 -7.03140625 7.85089844 -8.59375 9.1015625 C-9.3878125 9.72804688 -10.181875 10.35453125 -11 11 C-11.33 10.01 -11.66 9.02 -12 8 C-11.195625 7.731875 -10.39125 7.46375 -9.5625 7.1875 C-8.716875 6.795625 -7.87125 6.40375 -7 6 C-6.67 5.01 -6.34 4.02 -6 3 C-2.55555556 0 -2.55555556 0 0 0 Z " fill="#2A6864" transform="translate(587,631)"/>
<path d="M0 0 C-2.12232979 1.17176518 -4.24757791 2.33754785 -6.375 3.5 C-6.97828125 3.83386719 -7.5815625 4.16773438 -8.203125 4.51171875 C-12.7734375 7 -12.7734375 7 -15 7 C-15 6.34 -15 5.68 -15 5 C-13.06891037 3.96709159 -11.129882 2.94901328 -9.1875 1.9375 C-8.10855469 1.36902344 -7.02960938 0.80054688 -5.91796875 0.21484375 C-3 -1 -3 -1 0 0 Z " fill="#D6F7F5" transform="translate(351,235)"/>
<path d="M0 0 C0.66 0.99 1.32 1.98 2 3 C0.35 5.97 -1.3 8.94 -3 12 C-3.66 12 -4.32 12 -5 12 C-3.68938409 7.76570244 -2.05643741 3.92592596 0 0 Z " fill="#35827D" transform="translate(21,622)"/>
<path d="M0 0 C1.75094232 0.06037732 3.50091527 0.14926737 5.25 0.25 C6.71179688 0.31960938 6.71179688 0.31960938 8.203125 0.390625 C11.57817054 1.12597012 12.81141609 2.39454297 15 5 C13.06077578 4.54901762 11.12366406 4.08894441 9.1875 3.625 C8.10855469 3.36976563 7.02960938 3.11453125 5.91796875 2.8515625 C3 2 3 2 0 0 Z " fill="#C2E8E6" transform="translate(348,591)"/>
<path d="M0 0 C0.33 0 0.66 0 1 0 C1.25 6.625 1.25 6.625 -1 10 C-1.38499891 11.65549531 -1.72793135 13.3222433 -2 15 C-2.66 15 -3.32 15 -4 15 C-3.52229477 13.06213915 -3.04278429 11.12472326 -2.5625 9.1875 C-2.29566406 8.10855469 -2.02882813 7.02960938 -1.75390625 5.91796875 C-1.23922588 3.9259157 -0.65062825 1.95188476 0 0 Z " fill="#C8E8E6" transform="translate(402,163)"/>
<path d="M0 0 C0.66 0 1.32 0 2 0 C0.4169423 4.2742558 -2.50568404 6.26531794 -6 9 C-6 8.01 -6 7.02 -6 6 C-5.38125 5.7525 -4.7625 5.505 -4.125 5.25 C-1.64931313 3.79371361 -1.04874998 2.62187494 0 0 Z " fill="#C6E8E7" transform="translate(529,548)"/>
<path d="M0 0 C3.55780196 0.60990891 6.6828589 1.5783681 10 3 C9.01 4.485 9.01 4.485 8 6 C5.33333333 4.66666667 2.66666667 3.33333333 0 2 C0 1.34 0 0.68 0 0 Z " fill="#ABE6E1" transform="translate(482,303)"/>
<path d="M0 0 C0.66 0 1.32 0 2 0 C1 3 1 3 -1.3125 4.6875 C-4 6 -4 6 -8 6 C-8 5.34 -8 4.68 -8 4 C-6.865625 3.525625 -5.73125 3.05125 -4.5625 2.5625 C-1.24259834 1.36377917 -1.24259834 1.36377917 0 0 Z " fill="#246C67" transform="translate(484,553)"/>
<path d="M0 0 C0.33 0.99 0.66 1.98 1 3 C-0.21484375 4.82421875 -0.21484375 4.82421875 -1.9375 6.6875 C-2.50339844 7.31011719 -3.06929687 7.93273437 -3.65234375 8.57421875 C-4.09707031 9.04472656 -4.54179688 9.51523437 -5 10 C-5.66 9.34 -6.32 8.68 -7 8 C-4.69 5.36 -2.38 2.72 0 0 Z " fill="#36807A" transform="translate(538,540)"/>
<path d="M0 0 C4.55015893 1.51671964 6.50057264 5.16891053 9 9 C5.18063472 7.44396229 2.73955562 5.04395069 0 2 C0 1.34 0 0.68 0 0 Z " fill="#66B1A3" transform="translate(310,507)"/>
<path d="M0 0 C0.33 0 0.66 0 1 0 C1.16682272 4.92127034 1.24828052 8.50343896 -1 13 C-1.66 13 -2.32 13 -3 13 C-2.01 8.71 -1.02 4.42 0 0 Z " fill="#62AAA2" transform="translate(518,451)"/>
<path d="M0 0 C0.99 0.33 1.98 0.66 3 1 C-1.455 4.465 -1.455 4.465 -6 8 C-6.66 7.67 -7.32 7.34 -8 7 C-6.74057614 5.80040625 -5.46704714 4.61560557 -4.1875 3.4375 C-3.12595703 2.44556641 -3.12595703 2.44556641 -2.04296875 1.43359375 C-1.36878906 0.96050781 -0.69460938 0.48742187 0 0 Z " fill="#2A7672" transform="translate(519,560)"/>
<path d="M0 0 C-0.33 0.99 -0.66 1.98 -1 3 C-5.09724467 4.54613006 -7.81857651 5.29227216 -12 4 C-10.3767313 3.3291288 -8.75132422 2.66342971 -7.125 2 C-6.22007813 1.62875 -5.31515625 1.2575 -4.3828125 0.875 C-2 0 -2 0 0 0 Z " fill="#3A857F" transform="translate(109,543)"/>
<path d="M0 0 C0.99 0.33 1.98 0.66 3 1 C0.69 3.31 -1.62 5.62 -4 8 C-4.33 7.01 -4.66 6.02 -5 5 C-3.35 3.35 -1.7 1.7 0 0 Z " fill="#D0F0EE" transform="translate(295,271)"/>
<path d="M0 0 C0.99 0.33 1.98 0.66 3 1 C-0.96 4.465 -0.96 4.465 -5 8 C-5.33 7.01 -5.66 6.02 -6 5 C-5.34 5 -4.68 5 -4 5 C-4 4.34 -4 3.68 -4 3 C-3.34 3 -2.68 3 -2 3 C-2 2.34 -2 1.68 -2 1 C-1.34 0.67 -0.68 0.34 0 0 Z " fill="#CFF5F2" transform="translate(261,103)"/>
<path d="M0 0 C0 4.38968456 -2.12805101 5.76905739 -5 9 C-5.66 8.67 -6.32 8.34 -7 8 C-5.50902342 4.2047869 -3.24299151 2.38957269 0 0 Z " fill="#267B76" transform="translate(62,570)"/>
<path d="M0 0 C1.67542976 0.28604898 3.34385343 0.61781233 5 1 C4.67 1.99 4.34 2.98 4 4 C4.66 4.33 5.32 4.66 6 5 C3.625 4.6875 3.625 4.6875 1 4 C0.34 3.01 -0.32 2.02 -1 1 C-0.67 0.67 -0.34 0.34 0 0 Z " fill="#8CD6CE" transform="translate(443,290)"/>
<path d="M0 0 C0.33 0 0.66 0 1 0 C1.36923077 6.52307692 1.36923077 6.52307692 -0.5 8.9375 C-0.995 9.288125 -1.49 9.63875 -2 10 C-3.39195915 5.82412255 -1.82323219 3.86525224 0 0 Z " fill="#D3EFED" transform="translate(250,283)"/>
<path d="M0 0 C0.33 1.32 0.66 2.64 1 4 C-0.65 5.32 -2.3 6.64 -4 8 C-4 4.09161134 -2.49432124 2.88405893 0 0 Z " fill="#3C938A" transform="translate(280,87)"/>
<path d="M0 0 C1.4835001 0.42257276 2.96176424 0.86356322 4.4375 1.3125 C5.67306641 1.67794922 5.67306641 1.67794922 6.93359375 2.05078125 C7.61550781 2.36402344 8.29742187 2.67726563 9 3 C9.33 3.99 9.66 4.98 10 6 C5.56909529 4.79157144 3.01887244 3.48331435 0 0 Z " fill="#35706C" transform="translate(284,657)"/>
<path d="M0 0 C-1.15173355 2.46800047 -2.04783565 4.04783565 -4 6 C-6.125 5.625 -6.125 5.625 -8 5 C-2.25 0 -2.25 0 0 0 Z " fill="#2F7F79" transform="translate(71,564)"/>
<path d="M0 0 C3.25 -0.25 3.25 -0.25 7 0 C8.32 1.32 9.64 2.64 11 4 C7.37 3.01 3.74 2.02 0 1 C0 0.67 0 0.34 0 0 Z " fill="#CAE9E8" transform="translate(224,542)"/>
<path d="M0 0 C0.33 0.99 0.66 1.98 1 3 C-1.31 5.31 -3.62 7.62 -6 10 C-6 6.41087588 -5.33563446 5.89142971 -3 3.3125 C-2.443125 2.68988281 -1.88625 2.06726563 -1.3125 1.42578125 C-0.879375 0.95527344 -0.44625 0.48476563 0 0 Z " fill="#DBF8F2" transform="translate(293,337)"/>
<path d="M0 0 C3.78125 0.7578125 3.78125 0.7578125 5.75 2.9375 C7 5 7 5 7 7 C7.66 7.33 8.32 7.66 9 8 C8.01 8 7.02 8 6 8 C4.39453125 6.25 4.39453125 6.25 2.8125 4 C2.28269531 3.2575 1.75289062 2.515 1.20703125 1.75 C0.80871094 1.1725 0.41039062 0.595 0 0 Z " fill="#D4F8F6" transform="translate(614,288)"/>
<path d="M0 0 C0.66 0 1.32 0 2 0 C0.84414715 3.91211733 -0.35534962 6.8745041 -3 10 C-2.25 3.375 -2.25 3.375 0 0 Z " fill="#276B66" transform="translate(259,260)"/>
<path d="M0 0 C3.25 -0.25 3.25 -0.25 7 0 C8.32 1.32 9.64 2.64 11 4 C7.37 3.01 3.74 2.02 0 1 C0 0.67 0 0.34 0 0 Z " fill="#C6EAE8" transform="translate(242,548)"/>
<path d="M0 0 C6.625 -0.25 6.625 -0.25 10 2 C10 2.66 10 3.32 10 4 C6.7 3.01 3.4 2.02 0 1 C0 0.67 0 0.34 0 0 Z " fill="#D5F5F3" transform="translate(519,226)"/>
<path d="M0 0 C-0.33 0.99 -0.66 1.98 -1 3 C-3.5625 4.1875 -3.5625 4.1875 -6 5 C-6 4.01 -6 3.02 -6 2 C-6.99 1.67 -7.98 1.34 -9 1 C-2.25 0 -2.25 0 0 0 Z " fill="#469088" transform="translate(450,8)"/>
<path d="M0 0 C0.66 0.33 1.32 0.66 2 1 C0.02 3.31 -1.96 5.62 -4 8 C-4.66 7.67 -5.32 7.34 -6 7 C-4.02 4.69 -2.04 2.38 0 0 Z " fill="#327C76" transform="translate(44,588)"/>
<path d="M0 0 C0.33 0 0.66 0 1 0 C1.36923077 6.52307692 1.36923077 6.52307692 -0.5 8.9375 C-0.995 9.288125 -1.49 9.63875 -2 10 C-1.54177532 6.53058454 -1.10868317 3.32604951 0 0 Z " fill="#C3E4E2" transform="translate(242,306)"/>
<path d="M0 0 C0 0.33 0 0.66 0 1 C-5.16044765 2.512545 -8.65998179 3.33500455 -14 2 C-14 1.67 -14 1.34 -14 1 C-9.23692563 0.04738513 -4.8333472 -0.08333357 0 0 Z " fill="#BCE0DE" transform="translate(386,283)"/>
<path d="M0 0 C0.66 0 1.32 0 2 0 C0.71480435 2.86697492 -0.57129254 4.97607712 -3 7 C-3.66 7 -4.32 7 -5 7 C-5 6.34 -5 5.68 -5 5 C-4.34 5 -3.68 5 -3 5 C-2.67 4.01 -2.34 3.02 -2 2 C-1.34 2 -0.68 2 0 2 C0 1.34 0 0.68 0 0 Z " fill="#2C6F6A" transform="translate(310,194)"/>
</svg>
